<svg width="453" height="216" viewBox="0 0 453 216" fill="none" xmlns="http://www.w3.org/2000/svg">
<path d="M12 6.1C12 9.4 9.3 12.1 6 12.1C2.7 12.1 0 9.4 0 6.1C0 2.8 2.7 0.1 6 0.1C9.3 0.1 12 2.8 12 6.1ZM40 0.1C36.7 0.1 34 2.8 34 6.1C34 9.4 36.7 12.1 40 12.1C43.3 12.1 46 9.4 46 6.1C46 2.8 43.2 0.1 40 0.1ZM73.9 0.1C70.6 0.1 67.9 2.8 67.9 6.1C67.9 9.4 70.6 12.1 73.9 12.1C77.2 12.1 79.9 9.4 79.9 6.1C79.9 2.8 77.2 0.1 73.9 0.1ZM107.8 0.1C104.5 0.1 101.8 2.8 101.8 6.1C101.8 9.4 104.5 12.1 107.8 12.1C111.1 12.1 113.8 9.4 113.8 6.1C113.8 2.8 111.1 0.1 107.8 0.1ZM141.7 0.1C138.4 0.1 135.7 2.8 135.7 6.1C135.7 9.4 138.4 12.1 141.7 12.1C145 12.1 147.7 9.4 147.7 6.1C147.7 2.8 145 0.1 141.7 0.1ZM175.6 0.1C172.3 0.1 169.6 2.8 169.6 6.1C169.6 9.4 172.3 12.1 175.6 12.1C178.9 12.1 181.6 9.4 181.6 6.1C181.6 2.8 178.9 0.1 175.6 0.1ZM209.5 0.1C206.2 0.1 203.5 2.8 203.5 6.1C203.5 9.4 206.2 12.1 209.5 12.1C212.8 12.1 215.5 9.4 215.5 6.1C215.5 2.8 212.8 0.1 209.5 0.1ZM6.1 34C2.8 34 0.1 36.7 0.1 40C0.1 43.3 2.8 46 6.1 46C9.4 46 12.1 43.3 12.1 40C12 36.7 9.3 34 6.1 34ZM40 34C36.7 34 34 36.7 34 40C34 43.3 36.7 46 40 46C43.3 46 46 43.3 46 40C45.9 36.7 43.2 34 40 34ZM73.9 34C70.6 34 67.9 36.7 67.9 40C67.9 43.3 70.6 46 73.9 46C77.2 46 79.9 43.3 79.9 40C79.8 36.7 77.2 34 73.9 34ZM107.8 34C104.5 34 101.8 36.7 101.8 40C101.8 43.3 104.5 46 107.8 46C111.1 46 113.8 43.3 113.8 40C113.7 36.7 111.1 34 107.8 34ZM141.7 34C138.4 34 135.7 36.7 135.7 40C135.7 43.3 138.4 46 141.7 46C145 46 147.7 43.3 147.7 40C147.6 36.7 145 34 141.7 34ZM175.6 34C172.3 34 169.6 36.7 169.6 40C169.6 43.3 172.3 46 175.6 46C178.9 46 181.6 43.3 181.6 40C181.6 36.7 178.9 34 175.6 34ZM209.5 34C206.2 34 203.5 36.7 203.5 40C203.5 43.3 206.2 46 209.5 46C212.8 46 215.5 43.3 215.5 40C215.5 36.7 212.8 34 209.5 34ZM6.1 67.7C2.8 67.7 0.1 70.4 0.1 73.7C0.1 77 2.8 79.7 6.1 79.7C9.4 79.7 12.1 77 12.1 73.7C12 70.4 9.3 67.7 6.1 67.7ZM40 67.7C36.7 67.7 34 70.4 34 73.7C34 77 36.7 79.7 40 79.7C43.3 79.7 46 77 46 73.7C45.9 70.4 43.2 67.7 40 67.7ZM73.9 67.7C70.6 67.7 67.9 70.4 67.9 73.7C67.9 77 70.6 79.7 73.9 79.7C77.2 79.7 79.9 77 79.9 73.7C79.8 70.4 77.2 67.7 73.9 67.7ZM107.8 67.7C104.5 67.7 101.8 70.4 101.8 73.7C101.8 77 104.5 79.7 107.8 79.7C111.1 79.7 113.8 77 113.8 73.7C113.7 70.4 111.1 67.7 107.8 67.7ZM141.7 67.7C138.4 67.7 135.7 70.4 135.7 73.7C135.7 77 138.4 79.7 141.7 79.7C145 79.7 147.7 77 147.7 73.7C147.6 70.4 145 67.7 141.7 67.7ZM175.6 67.7C172.3 67.7 169.6 70.4 169.6 73.7C169.6 77 172.3 79.7 175.6 79.7C178.9 79.7 181.6 77 181.6 73.7C181.6 70.4 178.9 67.7 175.6 67.7ZM209.5 67.7C206.2 67.7 203.5 70.4 203.5 73.7C203.5 77 206.2 79.7 209.5 79.7C212.8 79.7 215.5 77 215.5 73.7C215.5 70.4 212.8 67.7 209.5 67.7ZM6.1 101.6C2.8 101.6 0.1 104.3 0.1 107.6C0.1 110.9 2.8 113.6 6.1 113.6C9.4 113.6 12.1 110.9 12.1 107.6C12 104.3 9.3 101.6 6.1 101.6ZM40 101.6C36.7 101.6 34 104.3 34 107.6C34 110.9 36.7 113.6 40 113.6C43.3 113.6 46 110.9 46 107.6C45.9 104.3 43.2 101.6 40 101.6ZM73.9 101.6C70.6 101.6 67.9 104.3 67.9 107.6C67.9 110.9 70.6 113.6 73.9 113.6C77.2 113.6 79.9 110.9 79.9 107.6C79.8 104.3 77.2 101.6 73.9 101.6ZM107.8 101.6C104.5 101.6 101.8 104.3 101.8 107.6C101.8 110.9 104.5 113.6 107.8 113.6C111.1 113.6 113.8 110.9 113.8 107.6C113.7 104.3 111.1 101.6 107.8 101.6ZM141.7 101.6C138.4 101.6 135.7 104.3 135.7 107.6C135.7 110.9 138.4 113.6 141.7 113.6C145 113.6 147.7 110.9 147.7 107.6C147.6 104.3 145 101.6 141.7 101.6ZM175.6 101.6C172.3 101.6 169.6 104.3 169.6 107.6C169.6 110.9 172.3 113.6 175.6 113.6C178.9 113.6 181.6 110.9 181.6 107.6C181.6 104.3 178.9 101.6 175.6 101.6ZM209.5 101.6C206.2 101.6 203.5 104.3 203.5 107.6C203.5 110.9 206.2 113.6 209.5 113.6C212.8 113.6 215.5 110.9 215.5 107.6C215.5 104.3 212.8 101.6 209.5 101.6ZM6.1 135.5C2.8 135.5 0.1 138.2 0.1 141.5C0.1 144.8 2.8 147.5 6.1 147.5C9.4 147.5 12.1 144.8 12.1 141.5C12.1 138.2 9.3 135.5 6.1 135.5ZM40 135.5C36.7 135.5 34 138.2 34 141.5C34 144.8 36.7 147.5 40 147.5C43.3 147.5 46 144.8 46 141.5C46 138.2 43.2 135.5 40 135.5ZM73.9 135.5C70.6 135.5 67.9 138.2 67.9 141.5C67.9 144.8 70.6 147.5 73.9 147.5C77.2 147.5 79.9 144.8 79.9 141.5C79.9 138.2 77.2 135.5 73.9 135.5ZM107.8 135.5C104.5 135.5 101.8 138.2 101.8 141.5C101.8 144.8 104.5 147.5 107.8 147.5C111.1 147.5 113.8 144.8 113.8 141.5C113.8 138.2 111.1 135.5 107.8 135.5ZM141.7 135.5C138.4 135.5 135.7 138.2 135.7 141.5C135.7 144.8 138.4 147.5 141.7 147.5C145 147.5 147.7 144.8 147.7 141.5C147.7 138.2 145 135.5 141.7 135.5ZM175.6 135.5C172.3 135.5 169.6 138.2 169.6 141.5C169.6 144.8 172.3 147.5 175.6 147.5C178.9 147.5 181.6 144.8 181.6 141.5C181.6 138.2 178.9 135.5 175.6 135.5ZM209.5 135.5C206.2 135.5 203.5 138.2 203.5 141.5C203.5 144.8 206.2 147.5 209.5 147.5C212.8 147.5 215.5 144.8 215.5 141.5C215.5 138.2 212.8 135.5 209.5 135.5ZM6.1 169.2C2.8 169.2 0.1 171.9 0.1 175.2C0.1 178.5 2.8 181.2 6.1 181.2C9.4 181.2 12.1 178.5 12.1 175.2C12 171.9 9.3 169.2 6.1 169.2ZM40 169.2C36.7 169.2 34 171.9 34 175.2C34 178.5 36.7 181.2 40 181.2C43.3 181.2 46 178.5 46 175.2C45.9 171.9 43.2 169.2 40 169.2ZM73.9 169.2C70.6 169.2 67.9 171.9 67.9 175.2C67.9 178.5 70.6 181.2 73.9 181.2C77.2 181.2 79.9 178.5 79.9 175.2C79.8 171.9 77.2 169.2 73.9 169.2ZM107.8 169.2C104.5 169.2 101.8 171.9 101.8 175.2C101.8 178.5 104.5 181.2 107.8 181.2C111.1 181.2 113.8 178.5 113.8 175.2C113.7 171.9 111.1 169.2 107.8 169.2ZM141.7 169.2C138.4 169.2 135.7 171.9 135.7 175.2C135.7 178.5 138.4 181.2 141.7 181.2C145 181.2 147.7 178.5 147.7 175.2C147.6 171.9 145 169.2 141.7 169.2ZM175.6 169.2C172.3 169.2 169.6 171.9 169.6 175.2C169.6 178.5 172.3 181.2 175.6 181.2C178.9 181.2 181.6 178.5 181.6 175.2C181.6 171.9 178.9 169.2 175.6 169.2ZM209.5 169.2C206.2 169.2 203.5 171.9 203.5 175.2C203.5 178.5 206.2 181.2 209.5 181.2C212.8 181.2 215.5 178.5 215.5 175.2C215.5 171.9 212.8 169.2 209.5 169.2ZM6.1 203.3C2.8 203.3 0.1 206 0.1 209.3C0.1 212.6 2.8 215.3 6.1 215.3C9.4 215.3 12.1 212.6 12.1 209.3C12 206 9.3 203.3 6.1 203.3ZM40 203.3C36.7 203.3 34 206 34 209.3C34 212.6 36.7 215.3 40 215.3C43.3 215.3 46 212.6 46 209.3C45.9 206 43.2 203.3 40 203.3ZM73.9 203.3C70.6 203.3 67.9 206 67.9 209.3C67.9 212.6 70.6 215.3 73.9 215.3C77.2 215.3 79.9 212.6 79.9 209.3C79.8 206 77.2 203.3 73.9 203.3ZM107.8 203.3C104.5 203.3 101.8 206 101.8 209.3C101.8 212.6 104.5 215.3 107.8 215.3C111.1 215.3 113.8 212.6 113.8 209.3C113.7 206 111.1 203.3 107.8 203.3ZM141.7 203.3C138.4 203.3 135.7 206 135.7 209.3C135.7 212.6 138.4 215.3 141.7 215.3C145 215.3 147.7 212.6 147.7 209.3C147.6 206 145 203.3 141.7 203.3ZM175.6 203.3C172.3 203.3 169.6 206 169.6 209.3C169.6 212.6 172.3 215.3 175.6 215.3C178.9 215.3 181.6 212.6 181.6 209.3C181.6 206 178.9 203.3 175.6 203.3ZM209.5 203.3C206.2 203.3 203.5 206 203.5 209.3C203.5 212.6 206.2 215.3 209.5 215.3C212.8 215.3 215.5 212.6 215.5 209.3C215.5 206 212.8 203.3 209.5 203.3ZM243.4 0.1C240.1 0.1 237.4 2.8 237.4 6.1C237.4 9.4 240.1 12.1 243.4 12.1C246.7 12.1 249.4 9.4 249.4 6.1C249.4 2.8 246.7 0.1 243.4 0.1ZM277.3 0.1C274 0.1 271.3 2.8 271.3 6.1C271.3 9.4 274 12.1 277.3 12.1C280.6 12.1 283.3 9.4 283.3 6.1C283.3 2.8 280.6 0.1 277.3 0.1ZM311.2 0.1C307.9 0.1 305.2 2.8 305.2 6.1C305.2 9.4 307.9 12.1 311.2 12.1C314.5 12.1 317.2 9.4 317.2 6.1C317.2 2.8 314.5 0.1 311.2 0.1ZM345.1 0.1C341.8 0.1 339.1 2.8 339.1 6.1C339.1 9.4 341.8 12.1 345.1 12.1C348.4 12.1 351.1 9.4 351.1 6.1C351.1 2.8 348.4 0.1 345.1 0.1ZM379 0.1C375.7 0.1 373 2.8 373 6.1C373 9.4 375.7 12.1 379 12.1C382.3 12.1 385 9.4 385 6.1C385 2.8 382.3 0.1 379 0.1ZM413 0.1C409.7 0.1 407 2.8 407 6.1C407 9.4 409.7 12.1 413 12.1C416.3 12.1 419 9.4 419 6.1C419 2.8 416.2 0.1 413 0.1ZM446.9 12C450.2 12 452.9 9.3 452.9 6C452.9 2.7 450.2 0 446.9 0C443.6 0 440.9 2.7 440.9 6C440.9 9.3 443.6 12 446.9 12ZM243.4 34C240.1 34 237.4 36.7 237.4 40C237.4 43.3 240.1 46 243.4 46C246.7 46 249.4 43.3 249.4 40C249.4 36.7 246.7 34 243.4 34ZM277.3 34C274 34 271.3 36.7 271.3 40C271.3 43.3 274 46 277.3 46C280.6 46 283.3 43.3 283.3 40C283.3 36.7 280.6 34 277.3 34ZM311.2 34C307.9 34 305.2 36.7 305.2 40C305.2 43.3 307.9 46 311.2 46C314.5 46 317.2 43.3 317.2 40C317.2 36.7 314.5 34 311.2 34ZM345.1 34C341.8 34 339.1 36.7 339.1 40C339.1 43.3 341.8 46 345.1 46C348.4 46 351.1 43.3 351.1 40C351.1 36.7 348.4 34 345.1 34ZM379 34C375.7 34 373 36.7 373 40C373 43.3 375.7 46 379 46C382.3 46 385 43.3 385 40C385 36.7 382.3 34 379 34ZM413 34C409.7 34 407 36.7 407 40C407 43.3 409.7 46 413 46C416.3 46 419 43.3 419 40C418.9 36.7 416.2 34 413 34ZM446.9 34C443.6 34 440.9 36.7 440.9 40C440.9 43.3 443.6 46 446.9 46C450.2 46 452.9 43.3 452.9 40C452.8 36.7 450.1 34 446.9 34ZM243.4 67.7C240.1 67.7 237.4 70.4 237.4 73.7C237.4 77 240.1 79.7 243.4 79.7C246.7 79.7 249.4 77 249.4 73.7C249.4 70.4 246.7 67.7 243.4 67.7ZM277.3 67.7C274 67.7 271.3 70.4 271.3 73.7C271.3 77 274 79.7 277.3 79.7C280.6 79.7 283.3 77 283.3 73.7C283.3 70.4 280.6 67.7 277.3 67.7ZM311.2 67.7C307.9 67.7 305.2 70.4 305.2 73.7C305.2 77 307.9 79.7 311.2 79.7C314.5 79.7 317.2 77 317.2 73.7C317.2 70.4 314.5 67.7 311.2 67.7ZM345.1 67.7C341.8 67.7 339.1 70.4 339.1 73.7C339.1 77 341.8 79.7 345.1 79.7C348.4 79.7 351.1 77 351.1 73.7C351.1 70.4 348.4 67.7 345.1 67.7ZM379 67.7C375.7 67.7 373 70.4 373 73.7C373 77 375.7 79.7 379 79.7C382.3 79.7 385 77 385 73.7C385 70.4 382.3 67.7 379 67.7ZM413 67.7C409.7 67.7 407 70.4 407 73.7C407 77 409.7 79.7 413 79.7C416.3 79.7 419 77 419 73.7C418.9 70.4 416.2 67.7 413 67.7ZM446.9 67.7C443.6 67.7 440.9 70.4 440.9 73.7C440.9 77 443.6 79.7 446.9 79.7C450.2 79.7 452.9 77 452.9 73.7C452.8 70.4 450.1 67.7 446.9 67.7ZM243.4 101.6C240.1 101.6 237.4 104.3 237.4 107.6C237.4 110.9 240.1 113.6 243.4 113.6C246.7 113.6 249.4 110.9 249.4 107.6C249.4 104.3 246.7 101.6 243.4 101.6ZM277.3 101.6C274 101.6 271.3 104.3 271.3 107.6C271.3 110.9 274 113.6 277.3 113.6C280.6 113.6 283.3 110.9 283.3 107.6C283.3 104.3 280.6 101.6 277.3 101.6ZM311.2 101.6C307.9 101.6 305.2 104.3 305.2 107.6C305.2 110.9 307.9 113.6 311.2 113.6C314.5 113.6 317.2 110.9 317.2 107.6C317.2 104.3 314.5 101.6 311.2 101.6ZM345.1 101.6C341.8 101.6 339.1 104.3 339.1 107.6C339.1 110.9 341.8 113.6 345.1 113.6C348.4 113.6 351.1 110.9 351.1 107.6C351.1 104.3 348.4 101.6 345.1 101.6ZM379 101.6C375.7 101.6 373 104.3 373 107.6C373 110.9 375.7 113.6 379 113.6C382.3 113.6 385 110.9 385 107.6C385 104.3 382.3 101.6 379 101.6ZM413 101.6C409.7 101.6 407 104.3 407 107.6C407 110.9 409.7 113.6 413 113.6C416.3 113.6 419 110.9 419 107.6C418.9 104.3 416.2 101.6 413 101.6ZM446.9 101.6C443.6 101.6 440.9 104.3 440.9 107.6C440.9 110.9 443.6 113.6 446.9 113.6C450.2 113.6 452.9 110.9 452.9 107.6C452.8 104.3 450.1 101.6 446.9 101.6ZM243.4 135.5C240.1 135.5 237.4 138.2 237.4 141.5C237.4 144.8 240.1 147.5 243.4 147.5C246.7 147.5 249.4 144.8 249.4 141.5C249.4 138.2 246.7 135.5 243.4 135.5ZM277.3 135.5C274 135.5 271.3 138.2 271.3 141.5C271.3 144.8 274 147.5 277.3 147.5C280.6 147.5 283.3 144.8 283.3 141.5C283.3 138.2 280.6 135.5 277.3 135.5ZM311.2 135.5C307.9 135.5 305.2 138.2 305.2 141.5C305.2 144.8 307.9 147.5 311.2 147.5C314.5 147.5 317.2 144.8 317.2 141.5C317.2 138.2 314.5 135.5 311.2 135.5ZM345.1 135.5C341.8 135.5 339.1 138.2 339.1 141.5C339.1 144.8 341.8 147.5 345.1 147.5C348.4 147.5 351.1 144.8 351.1 141.5C351.1 138.2 348.4 135.5 345.1 135.5ZM379 135.5C375.7 135.5 373 138.2 373 141.5C373 144.8 375.7 147.5 379 147.5C382.3 147.5 385 144.8 385 141.5C385 138.2 382.3 135.5 379 135.5ZM413 135.5C409.7 135.5 407 138.2 407 141.5C407 144.8 409.7 147.5 413 147.5C416.3 147.5 419 144.8 419 141.5C419 138.2 416.2 135.5 413 135.5ZM446.9 135.5C443.6 135.5 440.9 138.2 440.9 141.5C440.9 144.8 443.6 147.5 446.9 147.5C450.2 147.5 452.9 144.8 452.9 141.5C452.9 138.2 450.1 135.5 446.9 135.5ZM243.4 169.2C240.1 169.2 237.4 171.9 237.4 175.2C237.4 178.5 240.1 181.2 243.4 181.2C246.7 181.2 249.4 178.5 249.4 175.2C249.4 171.9 246.7 169.2 243.4 169.2ZM277.3 169.2C274 169.2 271.3 171.9 271.3 175.2C271.3 178.5 274 181.2 277.3 181.2C280.6 181.2 283.3 178.5 283.3 175.2C283.3 171.9 280.6 169.2 277.3 169.2ZM311.2 169.2C307.9 169.2 305.2 171.9 305.2 175.2C305.2 178.5 307.9 181.2 311.2 181.2C314.5 181.2 317.2 178.5 317.2 175.2C317.2 171.9 314.5 169.2 311.2 169.2ZM345.1 169.2C341.8 169.2 339.1 171.9 339.1 175.2C339.1 178.5 341.8 181.2 345.1 181.2C348.4 181.2 351.1 178.5 351.1 175.2C351.1 171.9 348.4 169.2 345.1 169.2ZM379 169.2C375.7 169.2 373 171.9 373 175.2C373 178.5 375.7 181.2 379 181.2C382.3 181.2 385 178.5 385 175.2C385 171.9 382.3 169.2 379 169.2ZM413 169.2C409.7 169.2 407 171.9 407 175.2C407 178.5 409.7 181.2 413 181.2C416.3 181.2 419 178.5 419 175.2C418.9 171.9 416.2 169.2 413 169.2ZM446.9 169.2C443.6 169.2 440.9 171.9 440.9 175.2C440.9 178.5 443.6 181.2 446.9 181.2C450.2 181.2 452.9 178.5 452.9 175.2C452.8 171.9 450.1 169.2 446.9 169.2ZM243.4 203.3C240.1 203.3 237.4 206 237.4 209.3C237.4 212.6 240.1 215.3 243.4 215.3C246.7 215.3 249.4 212.6 249.4 209.3C249.4 206 246.7 203.3 243.4 203.3ZM277.3 203.3C274 203.3 271.3 206 271.3 209.3C271.3 212.6 274 215.3 277.3 215.3C280.6 215.3 283.3 212.6 283.3 209.3C283.3 206 280.6 203.3 277.3 203.3ZM311.2 203.3C307.9 203.3 305.2 206 305.2 209.3C305.2 212.6 307.9 215.3 311.2 215.3C314.5 215.3 317.2 212.6 317.2 209.3C317.2 206 314.5 203.3 311.2 203.3ZM345.1 203.3C341.8 203.3 339.1 206 339.1 209.3C339.1 212.6 341.8 215.3 345.1 215.3C348.4 215.3 351.1 212.6 351.1 209.3C351.1 206 348.4 203.3 345.1 203.3ZM379 203.3C375.7 203.3 373 206 373 209.3C373 212.6 375.7 215.3 379 215.3C382.3 215.3 385 212.6 385 209.3C385 206 382.3 203.3 379 203.3ZM413 203.3C409.7 203.3 407 206 407 209.3C407 212.6 409.7 215.3 413 215.3C416.3 215.3 419 212.6 419 209.3C418.9 206 416.2 203.3 413 203.3ZM446.9 203.3C443.6 203.3 440.9 206 440.9 209.3C440.9 212.6 443.6 215.3 446.9 215.3C450.2 215.3 452.9 212.6 452.9 209.3C452.8 206 450.1 203.3 446.9 203.3Z" fill="#FFA417" fill-opacity="0.15"/>
</svg>
