<svg width="110" height="350" viewBox="0 0 110 350" fill="none" xmlns="http://www.w3.org/2000/svg">
<path d="M350 55.6751L294.325 0H307.005L350 42.9946V55.6751ZM350 0H337.32L350 12.6804V0ZM350 85.8902L264.11 0H251.429L350 98.5706V85.8902ZM350 171.78L178.121 0H165.44L349.901 184.461V171.78H350ZM350 128.885L221.115 0H208.435L350 141.565V128.885ZM350 214.775L135.225 0H122.545L350 227.455V214.775ZM350 257.77L92.2304 0H79.55L350 270.45V257.77ZM350 300.665L49.3348 0H36.6544L350 313.346V300.665ZM350 350V343.66L6.34022 0H0V6.34022L343.66 350H350ZM313.346 350L0 36.6544V49.3348L300.665 350H313.346ZM270.45 350L0 79.55V92.2304L257.77 350H270.45ZM227.455 350L0 122.545V135.225L214.775 350H227.455ZM184.461 350L0 165.44V178.121L171.78 349.901H184.461V350ZM141.565 350L0 208.435V221.115L128.885 350H141.565ZM98.5706 350L0 251.429V264.11L85.8902 350H98.5706ZM55.6751 350L0 294.325V307.005L42.9946 350H55.6751ZM12.6804 350L0 337.32V350H12.6804Z" fill="#FFA417" fill-opacity="0.15"/>
</svg>
