<svg width="14" height="11" viewBox="0 0 14 11" fill="none" xmlns="http://www.w3.org/2000/svg">
<path fill-rule="evenodd" clip-rule="evenodd" d="M7.93526 10.9352C7.65078 10.8107 7.46667 10.5275 7.46667 10.2143L7.46667 8.64285L0.777779 8.64285C0.348224 8.64285 2.36822e-07 8.29107 2.74758e-07 7.85713L6.86893e-07 3.14286C7.24829e-07 2.70893 0.348224 2.35715 0.777779 2.35715L7.46667 2.35715L7.46667 0.785729C7.46667 0.472544 7.65078 0.189268 7.93526 0.0647664C8.21973 -0.0597339 8.55023 -0.00167799 8.7764 0.212523L13.7542 4.92679C13.911 5.07533 14 5.28282 14 5.5C14 5.71718 13.911 5.92467 13.7542 6.07321L8.7764 10.7875C8.55022 11.0017 8.21973 11.0597 7.93526 10.9352ZM12.085 5.5L9.02222 2.59933L9.02222 3.14286C9.02222 3.5768 8.674 3.92858 8.24444 3.92858L1.55556 3.92857L1.55556 7.07142L8.24444 7.07142C8.674 7.07142 9.02222 7.4232 9.02222 7.85713L9.02222 8.40067L12.085 5.5Z" fill="#FFA417"/>
</svg>
