<svg width="15" height="15" viewBox="0 0 15 15" fill="none" xmlns="http://www.w3.org/2000/svg">
<path fill-rule="evenodd" clip-rule="evenodd" d="M7.73941 0C9.59662 0.259073 11.279 1.09872 12.6087 2.42842C13.8698 3.69256 14.6969 5.28446 14.9997 7.03866L13.8479 7.2353C13.5888 5.72145 12.874 4.34493 11.7847 3.25557C10.636 2.11004 9.18148 1.38276 7.5771 1.15802L7.73941 0ZM11.4038 9.92279C10.9138 9.43898 10.302 9.43898 9.81505 9.92279C9.44361 10.2911 9.07217 10.6594 8.70697 11.034C8.60709 11.137 8.52281 11.1588 8.40108 11.0902C8.30584 11.0382 8.20815 10.9902 8.11054 10.9422L8.11052 10.9422L8.11049 10.9422C7.96178 10.8691 7.81324 10.796 7.6738 10.7094C6.59693 10.032 5.69486 9.16118 4.89579 8.18107C4.49938 7.69414 4.14667 7.17287 3.90008 6.58606C3.85014 6.46744 3.8595 6.38941 3.95626 6.29265C4.27442 5.98519 4.58571 5.67086 4.89797 5.35554L5.05498 5.19705C5.56376 4.68515 5.56376 4.08585 5.05186 3.57083C4.90674 3.42414 4.76162 3.27902 4.6165 3.1339L4.61643 3.13384C4.47129 2.98869 4.32615 2.84355 4.181 2.69685C4.08115 2.59699 3.98165 2.4968 3.88214 2.3966L3.88204 2.3965C3.68297 2.19604 3.4839 1.99558 3.28205 1.79789C2.792 1.32033 2.18021 1.32033 1.69328 1.80102C1.54342 1.94838 1.39606 2.09724 1.2488 2.246L1.24879 2.24601L1.24878 2.24602C1.02798 2.46907 0.807398 2.69189 0.578957 2.9091C0.226244 3.24308 0.0483268 3.65198 0.0108705 4.12955C-0.0484353 4.90677 0.141967 5.64029 0.410404 6.35508C0.959763 7.8346 1.79629 9.14869 2.81073 10.3535C4.181 11.9829 5.81659 13.272 7.72999 14.2022C8.59148 14.6204 9.48419 14.9419 10.4549 14.995C11.1229 15.0324 11.7035 14.8639 12.1686 14.3426C12.3778 14.1088 12.6046 13.8884 12.8312 13.6682L12.8312 13.6681C12.9494 13.5533 13.0675 13.4385 13.183 13.3219C13.6824 12.8163 13.6855 12.2045 13.1892 11.7051C12.5962 11.1089 12 10.5158 11.4038 9.92279ZM10.8077 7.43507L11.9595 7.23843C11.7784 6.18029 11.279 5.22203 10.5205 4.46042C9.71834 3.65823 8.7039 3.15257 7.58645 2.9965L7.42414 4.15453C8.28876 4.27626 9.07534 4.66643 9.69649 5.28758C10.2833 5.8744 10.6672 6.61728 10.8077 7.43507Z" fill="#FFA417"/>
</svg>
