<svg width="29" height="29" viewBox="0 0 29 29" fill="none" xmlns="http://www.w3.org/2000/svg">
<path d="M20.2675 7.17481C19.968 7.46402 19.9597 7.94113 20.2489 8.24064C23.502 11.6093 23.408 16.9959 20.0393 20.249C16.6709 23.5018 11.2841 23.408 8.03102 20.0394C4.77817 16.6709 4.8722 11.2839 8.24062 8.03104C8.5401 7.74183 8.54846 7.26469 8.25925 6.96521C7.97002 6.6657 7.49288 6.6574 7.1934 6.94661C3.22691 10.777 3.11619 17.1201 6.94658 21.0866C10.7768 25.0529 17.1201 25.1638 21.0866 21.3334C25.0529 17.5032 25.1636 11.1597 21.3334 7.19342C21.0442 6.89394 20.567 6.88558 20.2675 7.17481Z" fill="#153268"/>
<path d="M13.38 3.93989C13.38 3.71323 13.4533 3.52656 13.6 3.37989C13.7467 3.21989 13.9333 3.13989 14.16 3.13989C14.3867 3.13989 14.5733 3.21989 14.72 3.37989C14.8667 3.52656 14.94 3.71323 14.94 3.93989V14.4599C14.94 14.6732 14.86 14.8599 14.7 15.0199C14.54 15.1666 14.36 15.2399 14.16 15.2399C13.9467 15.2399 13.76 15.1666 13.6 15.0199C13.4533 14.8599 13.38 14.6732 13.38 14.4599V3.93989ZM14.16 16.4399C14.48 16.4399 14.7533 16.5599 14.98 16.7999C15.2067 17.0266 15.32 17.2999 15.32 17.6199C15.32 17.9399 15.2067 18.2132 14.98 18.4399C14.7533 18.6666 14.48 18.7799 14.16 18.7799C13.84 18.7799 13.5667 18.6732 13.34 18.4599C13.1133 18.2332 13 17.9532 13 17.6199C13 17.2866 13.1133 17.0066 13.34 16.7799C13.5667 16.5532 13.84 16.4399 14.16 16.4399Z" fill="#FFA417"/>
</svg>
